Coordinates
version=1
nRows=8
nColumns=42
inDegrees=yes

Units are S.I. units (second, meters, Newtons, ...)
If the header above contains a line with 'inDegrees', this indicates whether rotational values are in degrees (yes) or radians (no).

endheader
time	pelvis_tilt	pelvis_list	pelvis_rotation	pelvis_tx	pelvis_ty	pelvis_tz	hip_flexion_r	hip_adduction_r	hip_rotation_r	knee_angle_r	knee_adduction_r	knee_angle_r_beta	ankle_angle_r	subtalar_angle_r	mtp_angle_r	hip_flexion_l	hip_adduction_l	hip_rotation_l	knee_angle_l	knee_adduction_l	knee_angle_l_beta	ankle_angle_l	subtalar_angle_l	mtp_angle_l	lumbar_extension	lumbar_bending	lumbar_rotation	arm_flex_r	arm_add_r	arm_rot_r	elbow_flex_r	pro_sup_r	wrist_flex_r	wrist_dev_r	arm_flex_l	arm_add_l	arm_rot_l	elbow_flex_l	pro_sup_l	wrist_flex_l	wrist_dev_l
      3.02000000	      2.98706258	      2.85021015	      4.32429734	     -1.19745964	      0.85464453	      0.31999446	      3.95393501	     -1.08055527	    -23.36187860	     36.92085443	     -6.50173821	      0.64439047	     27.80615110	     36.60834218	     -7.51902274	     28.98515827	      4.18147954	     -4.00748565	     40.59956833	     -7.02686083	      0.70859614	     10.69448496	     14.56665665	     -7.51902274	    -28.01077612	     -3.00704703	     -1.86500340	     14.62957992	    -11.63686101	      8.93233248	     51.95982960	     90.00000001	      0.00000000	      0.00000000	     16.15952553	    -13.72255877	     29.83382959	     52.48328636	     90.00000001	      0.00000000	      0.00000000
      3.03000000	      2.93653370	      2.73393540	      4.30187868	     -1.19422750	      0.85407788	      0.31965505	      3.82817193	     -0.97547896	    -23.25173992	     37.05071250	     -6.44904265	      0.64665692	     27.69748857	     36.33101142	     -7.51886201	     29.33226022	      4.12953209	     -4.19340030	     40.06131604	     -6.72761991	      0.69920187	     10.67715776	     14.53094766	     -7.51886201	    -27.92560593	     -2.82000395	     -1.77337624	     14.78008561	    -11.75597536	      8.88871978	     52.04509555	     90.00000001	      0.00000000	      0.00000000	     16.07184854	    -13.70630579	     29.73535257	     52.53622078	     90.00000001	      0.00000000	      0.00000000
      3.04000000	      2.97359455	      2.79818601	      4.09601943	     -1.19084741	      0.85388677	      0.31932316	      3.61064151	     -1.08416239	    -23.05824166	     37.18792333	     -6.47177534	      0.64905170	     27.84957609	     36.50824085	     -7.51862243	     29.23835268	      4.29802639	     -4.38458246	     38.86838297	     -6.53110717	      0.67838126	     10.43217373	     15.00742296	     -7.51862243	    -27.95719420	     -2.85645523	     -1.62271966	     15.01131167	    -11.90549905	      8.93455014	     51.89480441	     90.00000001	      0.00000000	      0.00000000	     15.92304497	    -13.58399686	     29.33068075	     52.49705055	     90.00000001	      0.00000000	      0.00000000
      3.05000000	      2.91843879	      2.68188663	      4.07439635	     -1.18749472	      0.85333510	      0.31891894	      3.48907515	     -0.98131901	    -22.94097004	     37.33926135	     -6.42740546	      0.65169305	     27.74710470	     36.23950597	     -7.51847014	     29.57178366	      4.27339779	     -4.61788382	     38.44121665	     -6.29831206	      0.67092580	     10.39058594	     14.98486759	     -7.51847014	    -27.88770580	     -2.65536945	     -1.55029710	     15.18107236	    -12.03049764	      8.89018777	     51.95471841	     90.00000001	      0.00000000	      0.00000000	     15.82448994	    -13.59336469	     29.21495207	     52.53086394	     90.00000001	      0.00000000	      0.00000000
      3.06000000	      2.97571256	      2.76825140	      3.82323919	     -1.18394246	      0.85310349	      0.31850732	      3.26712284	     -1.16603179	    -22.69965871	     37.57259428	     -6.37966407	      0.65576548	     27.99512408	     36.40755639	     -7.51789103	     29.51006776	      4.44827921	     -5.51045066	     37.41874625	     -6.51815695	      0.65308032	      9.91203323	     16.11638480	     -7.51789103	    -27.93649365	     -2.71430072	     -1.49644547	     15.66597924	    -12.12587396	      9.10147553	     51.36411215	     90.00000001	      0.00000000	      0.00000000	     15.56460760	    -13.32414381	     27.98669245	     52.37355117	     90.00000001	      0.00000000	      0.00000000
      3.07000000	      2.88900568	      2.65293944	      3.77450641	     -1.18048639	      0.85255018	      0.31811024	      3.17356363	     -1.05746913	    -22.61026888	     37.69640366	     -6.38211348	      0.65792636	     27.91042848	     36.21064285	     -7.51777007	     29.80402721	      4.40937573	     -5.76123013	     37.00089560	     -6.25816667	      0.64578745	      9.92880345	     16.06561211	     -7.51777007	    -27.86140503	     -2.53220739	     -1.44198064	     15.83045853	    -12.28166223	      9.05011856	     51.41440009	     90.00000001	      0.00000000	      0.00000000	     15.53007660	    -13.35773388	     27.87385937	     52.40383902	     90.00000001	      0.00000000	      0.00000000
      3.08000000	      2.91020505	      2.73907826	      3.56706567	     -1.17683613	      0.85225757	      0.31769374	      2.98374358	     -1.22128747	    -22.36531503	     37.92603128	     -6.35574672	      0.66193412	     28.00347487	     36.25768650	     -7.51735386	     29.77749040	      4.60970754	     -6.39413295	     36.23484494	     -6.32921588	      0.63241735	      9.67841692	     16.34948097	     -7.51735386	    -27.89821300	     -2.61004957	     -1.32748286	     16.13326806	    -12.40733791	      9.11277485	     51.16892581	     90.00000001	      0.00000000	      0.00000000	     15.42296040	    -13.22122751	     27.18873729	     52.31667264	     90.00000001	      0.00000000	      0.00000000
      3.09000000	      2.83128442	      2.66277720	      3.47258026	     -1.17321721	      0.85176402	      0.31730057	      2.89129356	     -1.14629174	    -22.24216099	     38.06570368	     -6.41641316	      0.66437186	     27.96153675	     36.13816225	     -7.51718360	     29.97094721	      4.62877567	     -6.77241895	     35.81143707	     -6.21787784	      0.62502749	      9.63615582	     16.28831208	     -7.51718360	    -27.83866363	     -2.49927322	     -1.25252642	     16.33087708	    -12.53314788	      9.08300545	     51.16863333	     90.00000001	      0.00000000	      0.00000000	     15.37411216	    -13.23425635	     26.98292044	     52.30756569	     90.00000001	      0.00000000	      0.00000000
